<svg width="33" height="32" viewBox="0 0 33 32" fill="none" xmlns="http://www.w3.org/2000/svg">
<g clip-path="url(#clip0_1_45)">
<path d="M16.5 32C25.3368 32 32.5 24.8368 32.5 16C32.5 7.1632 25.3368 0 16.5 0C7.6632 0 0.5 7.1632 0.5 16C0.5 24.8368 7.6632 32 16.5 32Z" fill="#070A0E"/>
<path fill-rule="evenodd" clip-rule="evenodd" d="M9.74325 21.3649C9.26485 21.0721 8.97205 20.5521 8.97205 19.9921V16.8657C8.97205 16.4945 9.27445 16.1937 9.64565 16.1953C9.76405 16.1953 9.88085 16.2273 9.98325 16.2865L17.0376 20.4001C17.4504 20.6401 17.7048 21.0817 17.7048 21.5601V24.7985C17.7064 25.2433 17.3464 25.6049 16.9016 25.6049C16.7528 25.6049 16.6056 25.5633 16.4792 25.4865L9.74325 21.3649ZM20.2584 15.4305C20.6712 15.6705 20.924 16.1137 20.9256 16.5905V23.1633C20.9256 23.3569 20.8216 23.5361 20.652 23.6305L19.108 24.4993C19.0888 24.5105 19.068 24.5185 19.0456 24.5249V20.8753C19.0456 20.4033 18.7976 19.9649 18.3912 19.7217L12.196 16.0161V11.8961C12.196 11.5249 12.4984 11.2241 12.8696 11.2257C12.988 11.2257 13.1048 11.2577 13.2072 11.3169L20.2584 15.4305ZM23.3464 10.5761C23.7608 10.8161 24.0152 11.2593 24.0152 11.7377V21.3377C24.0136 21.5345 23.9048 21.7153 23.732 21.8097L22.268 22.6001V15.9169C22.268 15.4449 22.02 15.0081 21.6168 14.7649L15.284 10.9665V7.05929C15.284 6.94089 15.316 6.82409 15.3736 6.72169C15.5608 6.40169 15.972 6.29289 16.292 6.47849L23.3464 10.5761Z" fill="#00D395"/>
</g>
<defs>
<clipPath id="clip0_1_45">
<rect width="32" height="32" fill="white" transform="translate(0.5)"/>
</clipPath>
</defs>
</svg>
