<svg width="33" height="33" viewBox="0 0 33 33" fill="none" xmlns="http://www.w3.org/2000/svg">
<g clip-path="url(#clip0_4_162)">
<path d="M16.5 0.5C25.3374 0.5 32.5 7.66407 32.5 16.5C32.5 25.3374 25.3374 32.5 16.5 32.5C7.66407 32.5 0.5 25.3366 0.5 16.5C0.5 7.66407 7.66407 0.5 16.5 0.5Z" fill="#F5AC37"/>
<path d="M17.0896 17.6297H23.1694C23.299 17.6297 23.3602 17.6297 23.3695 17.4598C23.4192 16.8413 23.4192 16.2192 23.3695 15.6C23.3695 15.4798 23.3098 15.4301 23.1795 15.4301H11.0797C10.93 15.4301 10.8897 15.4798 10.8897 15.6202V17.4C10.8897 17.6297 10.8897 17.6297 11.1294 17.6297H17.0896ZM22.6906 13.35C22.7079 13.3046 22.7079 13.2549 22.6906 13.2103C22.5891 12.9893 22.4688 12.7783 22.3291 12.5803C22.1189 12.2419 21.8712 11.9301 21.589 11.65C21.4558 11.4808 21.3017 11.3289 21.1289 11.2C20.2634 10.4635 19.2345 9.94218 18.1286 9.6801C17.5706 9.55482 17.0004 9.49506 16.4287 9.5001H11.0589C10.9091 9.5001 10.8889 9.55986 10.8889 9.69018V13.2398C10.8889 13.3896 10.8889 13.4299 11.079 13.4299H22.6186C22.6186 13.4299 22.7187 13.4097 22.7388 13.35H22.6899H22.6906ZM22.6906 19.7098C22.5207 19.6911 22.3493 19.6911 22.1794 19.7098H11.0898C10.9401 19.7098 10.8897 19.7098 10.8897 19.91V23.3804C10.8897 23.5402 10.8897 23.5806 11.0898 23.5806H16.2098C16.4546 23.5993 16.6994 23.582 16.9392 23.5309C17.6822 23.4776 18.413 23.3163 19.11 23.0506C19.3634 22.9628 19.6082 22.8483 19.8393 22.7108H19.9092C21.1094 22.0865 22.0843 21.1059 22.6992 19.902C22.6992 19.902 22.7691 19.7508 22.6906 19.7112V19.7098ZM8.88011 25.3799V25.3201V22.9902V22.2003V19.8502C8.88011 19.7199 8.88011 19.7004 8.72027 19.7004H6.55017C6.42993 19.7004 6.38025 19.7004 6.38025 19.5406V17.6405H8.70011C8.82971 17.6405 8.88011 17.6405 8.88011 17.4706V15.5906C8.88011 15.4704 8.88011 15.4409 8.72027 15.4409H6.55017C6.42993 15.4409 6.38025 15.4409 6.38025 15.281V13.5213C6.38025 13.4112 6.38025 13.3817 6.54009 13.3817H8.69003C8.83979 13.3817 8.88011 13.3817 8.88011 13.1916V7.8016C8.88011 7.64176 8.88011 7.60144 9.08028 7.60144H16.5799C17.1242 7.62304 17.6649 7.6828 18.1999 7.78144C19.3022 7.9852 20.3613 8.37905 21.3298 8.94137C21.972 9.31938 22.5631 9.77586 23.0895 10.3015C23.4855 10.7126 23.8426 11.1576 24.1594 11.6313C24.474 12.1116 24.7354 12.6249 24.9406 13.1613C24.9658 13.301 25.0997 13.3953 25.2394 13.3716H27.0293C27.259 13.3716 27.259 13.3716 27.2691 13.5919V15.2321C27.2691 15.3919 27.2093 15.4322 27.0488 15.4322H25.6685C25.5288 15.4322 25.4885 15.4322 25.4986 15.6122C25.5533 16.2214 25.5533 16.8327 25.4986 17.4418C25.4986 17.6117 25.4986 17.6319 25.6894 17.6319H27.2684C27.3382 17.7219 27.2684 17.8119 27.2684 17.9026C27.2785 18.0185 27.2785 18.1359 27.2684 18.2518V19.4621C27.2684 19.632 27.2187 19.6824 27.0682 19.6824H25.1782C25.0464 19.6572 24.9183 19.7415 24.888 19.8725C24.438 21.0425 23.718 22.0916 22.7878 22.9326C22.4479 23.2386 22.0908 23.5266 21.7178 23.7922C21.3175 24.0226 20.928 24.2624 20.5176 24.4525C19.7623 24.7923 18.9703 25.0429 18.1574 25.202C17.3856 25.3403 16.6029 25.4029 15.8174 25.3921H8.87723V25.382L8.88011 25.3799Z" fill="#FEFEFD"/>
</g>
<defs>
<clipPath id="clip0_4_162">
<rect width="32" height="32" fill="white" transform="translate(0.5 0.5)"/>
</clipPath>
</defs>
</svg>
