<svg width="33" height="32" viewBox="0 0 33 32" fill="none" xmlns="http://www.w3.org/2000/svg">
<g clip-path="url(#clip0_1_7721)">
<path d="M16.5 32C25.3366 32 32.5 24.8366 32.5 16C32.5 7.16344 25.3366 0 16.5 0C7.66344 0 0.5 7.16344 0.5 16C0.5 24.8366 7.66344 32 16.5 32Z" fill="url(#paint0_linear_1_7721)"/>
<path d="M8.62476 20.8V13.2693L14.3357 17.5675V20.8H15.7933V17.264C15.793 17.1326 15.7623 17.0031 15.7035 16.8855C15.6448 16.768 15.5596 16.6657 15.4546 16.5867L8.52876 11.3723C8.40208 11.2782 8.25179 11.2211 8.0946 11.2073C7.93741 11.1934 7.77947 11.2235 7.63833 11.2941C7.49719 11.3646 7.37838 11.473 7.29511 11.607C7.21184 11.741 7.16736 11.8955 7.16663 12.0533V20.8H8.62476ZM24.4189 20.8V13.2693L18.708 17.5675V20.8H17.2504V17.264C17.2506 17.1326 17.2813 17.0031 17.3401 16.8855C17.3989 16.768 17.4841 16.6657 17.589 16.5867L24.5149 11.3744C24.6414 11.2804 24.7915 11.2233 24.9485 11.2094C25.1055 11.1955 25.2633 11.2254 25.4044 11.2957C25.5454 11.366 25.6643 11.474 25.7477 11.6078C25.8311 11.7415 25.8759 11.8957 25.877 12.0533V20.8H24.4189Z" fill="white"/>
</g>
<defs>
<linearGradient id="paint0_linear_1_7721" x1="16.5" y1="0" x2="16.5" y2="32" gradientUnits="userSpaceOnUse">
<stop stop-color="#4FA89B"/>
<stop offset="1" stop-color="#6ACEBB"/>
</linearGradient>
<clipPath id="clip0_1_7721">
<rect width="32" height="32" fill="white" transform="translate(0.5)"/>
</clipPath>
</defs>
</svg>
