<svg width="33" height="32" viewBox="0 0 33 32" fill="none" xmlns="http://www.w3.org/2000/svg">
<g clip-path="url(#clip0_1_86)">
<path d="M16.4983 31.9965C25.3339 31.9965 32.4965 24.8339 32.4965 15.9983C32.4965 7.16267 25.3339 0 16.4983 0C7.66267 0 0.5 7.16267 0.5 15.9983C0.5 24.8339 7.66267 31.9965 16.4983 31.9965Z" fill="url(#paint0_linear_1_86)"/>
<path d="M11.2288 12.0208C11.101 11.862 10.9069 11.7738 10.6997 11.7738H6.42671C6.39143 11.7738 6.36056 11.7606 6.33411 11.7385C6.31206 11.7165 6.29883 11.69 6.29883 11.6592V8.77966C6.29883 8.74879 6.31206 8.72233 6.33411 8.70029C6.36056 8.67383 6.39143 8.6606 6.42671 8.66501H10.9422C12.0799 8.66501 13.0633 9.13243 13.8923 10.0629L14.9903 11.4034L12.8516 14.0095L11.2288 12.0208ZM19.1221 10.0496C19.9467 9.12802 20.9345 8.66501 22.0854 8.66501H26.5877C26.6186 8.6606 26.6494 8.67383 26.6715 8.69147C26.6935 8.71352 26.7024 8.74438 26.6979 8.77966V11.6592C26.6979 11.69 26.6891 11.7165 26.6715 11.7385C26.6494 11.765 26.6186 11.7782 26.5877 11.7738H22.3147C22.1119 11.7694 21.9179 11.862 21.7856 12.0208L18.6371 15.8528L21.7988 19.7112C21.9267 19.8567 22.1163 19.9449 22.3103 19.9405H26.5833C26.6142 19.9361 26.6494 19.9538 26.6671 19.9758C26.6847 20.0023 26.6979 20.0375 26.6935 20.0684V22.9479C26.6935 22.9788 26.6847 23.0052 26.6671 23.0273C26.645 23.0538 26.6142 23.067 26.5833 23.0626H22.0854C20.9345 23.0626 19.9556 22.5951 19.1354 21.6647L16.516 18.4677L13.8967 21.6647C13.0721 22.5951 12.0843 23.0626 10.9334 23.0626H6.42671C6.39584 23.067 6.36056 23.0493 6.34292 23.0273C6.32088 23.0008 6.31206 22.9656 6.31647 22.9347V20.0552C6.31647 20.0243 6.32529 19.9979 6.34292 19.9758C6.36497 19.9493 6.39584 19.9361 6.42671 19.9405H10.6997C10.9025 19.9405 11.0965 19.8479 11.2288 19.6936L14.32 15.9189L19.1221 10.0496Z" fill="#00D1FF"/>
</g>
<defs>
<linearGradient id="paint0_linear_1_86" x1="16.5005" y1="-9.2603e-05" x2="16.5005" y2="8.46647" gradientUnits="userSpaceOnUse">
<stop stop-color="#090220"/>
<stop offset="1" stop-color="#170659"/>
</linearGradient>
<clipPath id="clip0_1_86">
<rect width="32" height="32" fill="white" transform="translate(0.5)"/>
</clipPath>
</defs>
</svg>
