<?xml version="1.0" encoding="UTF-8"?>
<svg xmlns="http://www.w3.org/2000/svg" xmlns:xlink="http://www.w3.org/1999/xlink" width="32px" height="32px" viewBox="0 0 32 32" version="1.1">
<g id="surface1">
<path style=" stroke:none;fill-rule:nonzero;fill:rgb(100%,0%,47.843137%);fill-opacity:1;" d="M 12.550781 7.304688 C 12.148438 7.257812 12.128906 7.242188 12.320312 7.222656 C 12.683594 7.175781 13.519531 7.242188 14.109375 7.355469 C 15.476562 7.636719 16.714844 8.359375 18.023438 9.628906 L 18.367188 9.972656 L 18.863281 9.90625 C 20.972656 9.613281 23.140625 9.84375 24.945312 10.566406 C 25.441406 10.765625 26.21875 11.160156 26.316406 11.257812 C 26.351562 11.289062 26.410156 11.503906 26.449219 11.71875 C 26.582031 12.492188 26.523438 13.070312 26.238281 13.515625 C 26.085938 13.761719 26.085938 13.828125 26.183594 14.039062 C 26.257812 14.207031 26.484375 14.320312 26.695312 14.320312 C 27.152344 14.320312 27.625 13.695312 27.855469 12.820312 L 27.949219 12.476562 L 28.121094 12.640625 C 29.089844 13.578125 29.851562 14.878906 29.964844 15.800781 L 30.003906 16.050781 L 29.832031 15.835938 C 29.546875 15.457031 29.28125 15.210938 28.917969 14.996094 C 28.273438 14.617188 27.589844 14.5 25.78125 14.417969 C 24.148438 14.335938 23.214844 14.222656 22.304688 13.957031 C 20.742188 13.515625 19.945312 12.9375 18.101562 10.8125 C 17.285156 9.875 16.769531 9.363281 16.257812 8.9375 C 15.136719 7.996094 14.011719 7.503906 12.550781 7.304688 Z M 12.550781 7.304688 "/>
<path style=" stroke:none;fill-rule:nonzero;fill:rgb(100%,0%,47.843137%);fill-opacity:1;" d="M 26.714844 9.398438 C 26.753906 8.773438 26.847656 8.359375 27.054688 7.980469 C 27.132812 7.832031 27.207031 7.703125 27.226562 7.703125 C 27.246094 7.703125 27.207031 7.816406 27.152344 7.949219 C 27 8.3125 26.980469 8.820312 27.074219 9.398438 C 27.207031 10.136719 27.265625 10.238281 28.179688 11.042969 C 28.597656 11.421875 29.089844 11.898438 29.28125 12.097656 L 29.605469 12.460938 L 29.28125 12.195312 C 28.882812 11.867188 27.96875 11.242188 27.761719 11.160156 C 27.625 11.09375 27.609375 11.09375 27.511719 11.175781 C 27.4375 11.242188 27.417969 11.339844 27.417969 11.816406 C 27.398438 12.558594 27.285156 13.019531 27 13.496094 C 26.847656 13.746094 26.828125 13.695312 26.960938 13.414062 C 27.054688 13.199219 27.074219 13.101562 27.074219 12.394531 C 27.074219 10.960938 26.886719 10.617188 25.726562 10.039062 C 25.441406 9.890625 24.945312 9.675781 24.660156 9.5625 C 24.355469 9.445312 24.128906 9.347656 24.148438 9.347656 C 24.183594 9.316406 25.308594 9.59375 25.746094 9.757812 C 26.410156 9.988281 26.523438 10.007812 26.601562 9.988281 C 26.65625 9.941406 26.695312 9.808594 26.714844 9.398438 Z M 26.714844 9.398438 "/>
<path style=" stroke:none;fill-rule:nonzero;fill:rgb(100%,0%,47.843137%);fill-opacity:1;" d="M 13.328125 11.851562 C 12.53125 10.894531 12.015625 9.414062 12.128906 8.3125 L 12.167969 7.964844 L 12.359375 7.996094 C 12.699219 8.046875 13.289062 8.246094 13.574219 8.394531 C 14.335938 8.789062 14.679688 9.332031 15 10.683594 C 15.097656 11.078125 15.230469 11.539062 15.285156 11.6875 C 15.382812 11.933594 15.742188 12.507812 16.046875 12.871094 C 16.257812 13.136719 16.125 13.265625 15.648438 13.234375 C 14.925781 13.167969 13.957031 12.589844 13.328125 11.851562 Z M 13.328125 11.851562 "/>
<path style=" stroke:none;fill-rule:nonzero;fill:rgb(100%,0%,47.843137%);fill-opacity:1;" d="M 25.746094 19.011719 C 21.980469 17.695312 20.648438 16.558594 20.648438 14.632812 C 20.648438 14.351562 20.667969 14.121094 20.667969 14.121094 C 20.6875 14.121094 20.820312 14.222656 20.992188 14.335938 C 21.75 14.863281 22.605469 15.09375 24.984375 15.390625 C 26.371094 15.570312 27.171875 15.703125 27.894531 15.917969 C 30.195312 16.578125 31.621094 17.925781 31.960938 19.753906 C 32.058594 20.28125 32 21.285156 31.847656 21.8125 C 31.714844 22.222656 31.335938 22.980469 31.238281 22.996094 C 31.21875 22.996094 31.183594 22.914062 31.183594 22.785156 C 31.144531 22.09375 30.746094 21.433594 30.078125 20.921875 C 29.28125 20.332031 28.253906 19.886719 25.746094 19.011719 Z M 25.746094 19.011719 "/>
<path style=" stroke:none;fill-rule:nonzero;fill:rgb(100%,0%,47.843137%);fill-opacity:1;" d="M 23.082031 19.554688 C 23.042969 19.308594 22.949219 18.996094 22.890625 18.863281 L 22.796875 18.617188 L 22.96875 18.800781 C 23.214844 19.046875 23.40625 19.34375 23.578125 19.753906 C 23.710938 20.066406 23.710938 20.164062 23.710938 20.675781 C 23.710938 21.171875 23.691406 21.285156 23.578125 21.566406 C 23.386719 22.011719 23.160156 22.324219 22.777344 22.667969 C 22.09375 23.277344 21.199219 23.605469 19.925781 23.753906 C 19.699219 23.773438 19.050781 23.820312 18.480469 23.855469 C 17.054688 23.917969 16.105469 24.050781 15.25 24.316406 C 15.136719 24.347656 15.019531 24.382812 15 24.363281 C 14.964844 24.332031 15.554688 24.035156 16.027344 23.835938 C 16.695312 23.558594 17.378906 23.410156 18.878906 23.179688 C 19.621094 23.082031 20.382812 22.949219 20.574219 22.882812 C 22.457031 22.371094 23.386719 21.105469 23.082031 19.554688 Z M 23.082031 19.554688 "/>
<path style=" stroke:none;fill-rule:nonzero;fill:rgb(100%,0%,47.843137%);fill-opacity:1;" d="M 24.8125 22.207031 C 24.320312 21.269531 24.203125 20.378906 24.46875 19.539062 C 24.507812 19.457031 24.546875 19.375 24.585938 19.375 C 24.621094 19.375 24.738281 19.425781 24.851562 19.492188 C 25.078125 19.621094 25.554688 19.851562 26.769531 20.429688 C 28.3125 21.152344 29.1875 21.714844 29.792969 22.355469 C 30.328125 22.914062 30.648438 23.558594 30.800781 24.347656 C 30.898438 24.792969 30.839844 25.863281 30.707031 26.308594 C 30.289062 27.707031 29.339844 28.828125 27.949219 29.46875 C 27.742188 29.566406 27.570312 29.632812 27.550781 29.632812 C 27.53125 29.632812 27.609375 29.46875 27.722656 29.269531 C 28.179688 28.429688 28.234375 27.625 27.894531 26.71875 C 27.683594 26.160156 27.246094 25.484375 26.371094 24.347656 C 25.328125 23.03125 25.078125 22.683594 24.8125 22.207031 Z M 24.8125 22.207031 "/>
<path style=" stroke:none;fill-rule:nonzero;fill:rgb(100%,0%,47.843137%);fill-opacity:1;" d="M 10.648438 27.246094 C 12.054688 26.226562 13.785156 25.5 15.382812 25.269531 C 16.066406 25.171875 17.207031 25.203125 17.835938 25.351562 C 18.84375 25.582031 19.753906 26.078125 20.230469 26.6875 C 20.6875 27.277344 20.894531 27.789062 21.105469 28.925781 C 21.179688 29.371094 21.277344 29.832031 21.296875 29.929688 C 21.449219 30.523438 21.75 30.984375 22.132812 31.230469 C 22.722656 31.609375 23.75 31.625 24.753906 31.296875 C 24.925781 31.246094 25.078125 31.199219 25.078125 31.214844 C 25.117188 31.246094 24.605469 31.542969 24.261719 31.691406 C 23.785156 31.90625 23.40625 31.972656 22.890625 31.972656 C 21.980469 31.972656 21.199219 31.558594 20.574219 30.738281 C 20.441406 30.570312 20.171875 30.09375 19.945312 29.648438 C 19.28125 28.316406 18.9375 27.921875 18.15625 27.476562 C 17.472656 27.097656 16.597656 27.015625 15.933594 27.296875 C 15.058594 27.65625 14.832031 28.628906 15.4375 29.222656 C 15.6875 29.46875 16.144531 29.667969 16.523438 29.714844 C 17.226562 29.796875 17.835938 29.320312 17.835938 28.710938 C 17.835938 28.316406 17.664062 28.085938 17.207031 27.90625 C 16.597656 27.675781 15.933594 27.9375 15.953125 28.449219 C 15.953125 28.660156 16.066406 28.792969 16.3125 28.890625 C 16.464844 28.957031 16.464844 28.957031 16.351562 28.941406 C 15.800781 28.84375 15.667969 28.25 16.105469 27.871094 C 16.636719 27.410156 17.757812 27.609375 18.140625 28.25 C 18.292969 28.515625 18.308594 29.039062 18.175781 29.371094 C 17.855469 30.09375 16.941406 30.472656 16.007812 30.257812 C 15.382812 30.109375 15.117188 29.960938 14.355469 29.289062 C 13.023438 28.101562 12.511719 27.871094 10.609375 27.625 L 10.25 27.574219 Z M 10.648438 27.246094 "/>
<path style=" stroke:none;fill-rule:evenodd;fill:rgb(100%,0%,47.843137%);fill-opacity:1;" d="M 0.644531 0.753906 C 5.078125 5.414062 11.902344 12.65625 12.246094 13.050781 C 12.53125 13.382812 12.414062 13.695312 11.941406 13.925781 C 11.675781 14.058594 11.121094 14.1875 10.855469 14.1875 C 10.550781 14.1875 10.191406 14.058594 9.945312 13.84375 C 9.773438 13.695312 9.03125 12.757812 7.359375 10.5 C 6.085938 8.773438 5 7.339844 4.980469 7.324219 C 4.90625 7.289062 4.90625 7.289062 7.226562 10.878906 C 8.6875 13.136719 9.164062 13.941406 9.164062 14.039062 C 9.164062 14.253906 9.089844 14.371094 8.785156 14.667969 C 8.269531 15.160156 8.042969 15.71875 7.871094 16.890625 C 7.679688 18.191406 7.167969 19.113281 5.703125 20.675781 C 4.847656 21.597656 4.714844 21.761719 4.507812 22.140625 C 4.238281 22.601562 4.164062 22.867188 4.125 23.457031 C 4.089844 24.085938 4.164062 24.480469 4.375 25.074219 C 4.5625 25.597656 4.773438 25.945312 5.285156 26.621094 C 5.722656 27.214844 5.988281 27.65625 5.988281 27.820312 C 5.988281 27.953125 6.027344 27.953125 6.710938 27.820312 C 8.347656 27.492188 9.695312 26.933594 10.4375 26.242188 C 10.894531 25.8125 11.007812 25.582031 11.007812 24.988281 C 11.007812 24.613281 10.988281 24.527344 10.875 24.296875 C 10.6875 23.9375 10.324219 23.640625 9.542969 23.179688 C 8.519531 22.570312 8.082031 22.074219 7.964844 21.417969 C 7.871094 20.855469 7.984375 20.480469 8.554688 19.441406 C 9.144531 18.371094 9.296875 17.925781 9.394531 16.839844 C 9.449219 16.148438 9.542969 15.867188 9.773438 15.652344 C 10.019531 15.421875 10.230469 15.339844 10.820312 15.277344 C 11.789062 15.160156 12.414062 14.945312 12.910156 14.535156 C 13.347656 14.1875 13.539062 13.84375 13.558594 13.332031 L 13.574219 12.953125 L 13.328125 12.722656 C 12.433594 11.835938 0.0585938 0.046875 0 0.046875 C -0.0195312 0.046875 0.285156 0.359375 0.644531 0.753906 Z M 6.484375 24.167969 C 6.691406 23.855469 6.578125 23.457031 6.238281 23.261719 C 5.914062 23.082031 5.417969 23.164062 5.417969 23.410156 C 5.417969 23.476562 5.457031 23.542969 5.570312 23.574219 C 5.742188 23.65625 5.761719 23.738281 5.628906 23.917969 C 5.496094 24.101562 5.496094 24.265625 5.667969 24.382812 C 5.933594 24.5625 6.292969 24.464844 6.484375 24.167969 Z M 6.484375 24.167969 "/>
<path style=" stroke:none;fill-rule:evenodd;fill:rgb(100%,0%,47.843137%);fill-opacity:1;" d="M 14.183594 15.507812 C 13.726562 15.621094 13.289062 16.050781 13.15625 16.476562 C 13.082031 16.742188 13.121094 17.21875 13.253906 17.367188 C 13.460938 17.597656 13.652344 17.664062 14.183594 17.664062 C 15.230469 17.664062 16.125 17.269531 16.21875 16.789062 C 16.3125 16.394531 15.914062 15.851562 15.363281 15.605469 C 15.078125 15.472656 14.488281 15.421875 14.183594 15.507812 Z M 15.402344 16.328125 C 15.554688 16.132812 15.496094 15.917969 15.210938 15.769531 C 14.699219 15.488281 13.917969 15.71875 13.917969 16.148438 C 13.917969 16.363281 14.316406 16.59375 14.699219 16.59375 C 14.945312 16.59375 15.285156 16.460938 15.402344 16.328125 Z M 15.402344 16.328125 "/>
</g>
</svg>
